# Blender v2.80 (sub 75) OBJ File: ''
# www.blender.org
mtllib column.mtl
o Plane
v -0.993840 0.017583 0.981581
v 1.006160 0.017583 0.981581
v -0.993840 0.017583 -1.018419
v 1.006160 0.017583 -1.018419
v -0.750912 3.896821 -0.775491
v -0.750912 3.896821 0.738653
v 0.763232 3.896821 0.738653
v 0.763232 3.896821 -0.775491
vt 0.355837 0.010139
vt 0.355837 0.273806
vt 0.092170 0.273806
vt 0.092170 0.010139
vt 0.351256 0.011661
vt 0.351256 0.266165
vt 0.096751 0.266165
vt 0.096751 0.011661
vt 0.492552 0.007622
vt 0.992267 0.010203
vt 0.926553 0.981044
vt 0.548234 0.979090
vt 0.493172 0.007306
vt 0.992883 0.010523
vt 0.925934 0.981279
vt 0.547617 0.978844
vt 0.053726 0.284485
vt 0.411314 0.284607
vt 0.367642 0.979535
vt 0.096923 0.979442
vt 0.053384 0.283103
vt 0.409451 0.283496
vt 0.365438 0.975436
vt 0.095869 0.975138
vn 0.0000 -1.0000 0.0000
vn 0.0000 1.0000 0.0000
vn 0.0000 0.0625 -0.9980
vn 0.0000 0.0625 0.9980
vn 0.9980 0.0625 0.0000
vn -0.9980 0.0625 0.0000
usemtl None
s off
f 1/1/1 3/2/1 4/3/1 2/4/1
f 6/5/2 7/6/2 8/7/2 5/8/2
f 4/9/3 3/10/3 5/11/3 8/12/3
f 1/13/4 2/14/4 7/15/4 6/16/4
f 2/17/5 4/18/5 8/19/5 7/20/5
f 3/21/6 1/22/6 6/23/6 5/24/6
